<svg height="496pt" viewBox="0 0 496 496" width="496pt" xmlns="http://www.w3.org/2000/svg"><path d="m8 440h144v48h-144zm0 0" fill="#b27946"/><path d="m152 408v32h-144v-32zm0 0" fill="#fcd770"/><path d="m136.480469 376c-.320313 1.761719-.480469 3.519531-.480469 5.28125v26.71875h-112v-158.71875c0-41.359375 18.398438-80.5625 50.152344-107.042969l45.847656-38.238281v197.121094c3.441406-1.59375 6.640625-3.761719 9.359375-6.472656l38.320313-38.320313c5.359374-5.359375 12.558593-8.320313 20-8.320313 7.839843 0 14.878906 3.199219 20 8.320313 5.121093 5.121094 8.320312 12.160156 8.320312 20 0 7.441406-2.960938 14.640625-8.320312 20l-62.320313 62.320313c-4.71875 4.710937-7.839844 10.792968-8.878906 17.351562zm0 0" fill="#f0d0b4"/><path d="m392 8h-272v293.121094c3.441406-1.59375 6.640625-3.761719 9.359375-6.480469l38.320313-38.320313c5.359374-5.359374 12.558593-8.320312 20-8.320312 7.839843 0 14.878906 3.199219 20 8.320312 5.121093 5.121094 8.320312 12.160157 8.320312 20 0 7.441407-2.960938 14.640626-8.320312 20l-62.320313 62.320313c-4.71875 4.71875-7.839844 10.800781-8.878906 17.359375h351.519531v-272zm0 0" fill="#e6e9ed"/><path d="m408 296v48h-128v-112h48v64zm0 0" fill="#48cfad"/><path d="m488 104h-96v-96zm0 0" fill="#ff826e"/><path d="m328 184h128v112h-128zm0 0" fill="#fcd770"/><g fill="#1e1713"><path d="m496 384v-283.3125l-100.6875-100.6875h-283.3125v100.246094l-42.96875 35.808594c-33.703125 28.089843-53.03125 69.359374-53.03125 113.234374v150.710938h-16v96h160v-96h-16v-16zm-96-356.6875 68.6875 68.6875h-68.6875zm-16-11.3125v96h96v256h-332.007812c.878906-1.320312 1.894531-2.566406 3.039062-3.71875l62.34375-62.34375c6.847656-6.847656 10.625-15.960938 10.625-25.65625 0-20.007812-16.273438-36.28125-36.28125-36.28125-9.695312 0-18.808594 3.777344-25.65625 10.625l-34.0625 34.0625v-268.6875zm-240 400v16h-128v-16zm-128 64v-32h128v32zm16-80v-150.710938c0-39.113281 17.230469-75.898437 47.28125-100.9375l32.71875-27.261718v174.285156c-1.710938.386719-3.464844.625-5.257812.625h-10.742188v16h10.742188c10.691406 0 20.738281-4.167969 28.289062-11.71875l38.34375-38.34375c3.824219-3.824219 8.921875-5.9375 14.34375-5.9375 11.175781 0 20.28125 9.105469 20.28125 20.28125 0 5.421875-2.113281 10.511719-5.9375 14.34375l-62.34375 62.34375c-7.550781 7.550781-11.71875 17.597656-11.71875 28.289062v18.742188zm0 0"/><path d="m320 224h-48v128h144v-48h48v-128h-144zm80 112h-112v-96h32v64h80zm-64-144h112v96h-112zm0 0"/><path d="m375.136719 259.824219-17.480469-17.480469-11.3125 11.3125 30.519531 30.519531 53.535157-71.375-12.796876-9.601562zm0 0"/><path d="m144 32h16v16h-16zm0 0"/><path d="m176 32h192v16h-192zm0 0"/><path d="m144 64h224v16h-224zm0 0"/><path d="m352 96h16v16h-16zm0 0"/><path d="m144 96h192v16h-192zm0 0"/><path d="m144 128h320v16h-320zm0 0"/><path d="m144 160h112v16h-112zm0 0"/><path d="m144 192h112v16h-112zm0 0"/></g></svg>