<svg height="512" viewBox="0 0 64 64" width="512" xmlns="http://www.w3.org/2000/svg"><g id="Server-6" data-name="Server"><path d="m20 49h-5v12h46v-12zm1 8a2 2 0 1 1 2-2 2.006 2.006 0 0 1 -2 2zm8 0a2 2 0 1 1 2-2 2.006 2.006 0 0 1 -2 2zm8 0a2 2 0 1 1 2-2 2.006 2.006 0 0 1 -2 2z" fill="#9bc9ff"/><path d="m15 17v12h46v-12zm6 8a2 2 0 1 1 2-2 2.006 2.006 0 0 1 -2 2zm8 0a2 2 0 1 1 2-2 2.006 2.006 0 0 1 -2 2zm8 0a2 2 0 1 1 2-2 2.006 2.006 0 0 1 -2 2z" fill="#9bc9ff"/><path d="m25 11h18v-4a2.006 2.006 0 0 0 -2-2h-18v4a2.006 2.006 0 0 0 2 2z" fill="#9bc9ff"/><circle cx="37" cy="39" fill="#9bc9ff" r="2"/><circle cx="29" cy="39" fill="#9bc9ff" r="2"/><circle cx="21" cy="39" fill="#9bc9ff" r="2"/><g fill="#57a4ff"><path d="m21 42a3 3 0 1 0 -3-3 3 3 0 0 0 3 3zm0-4a1 1 0 1 1 -1 1 1 1 0 0 1 1-1z"/><path d="m29 42a3 3 0 1 0 -3-3 3 3 0 0 0 3 3zm0-4a1 1 0 1 1 -1 1 1 1 0 0 1 1-1z"/><path d="m37 42a3 3 0 1 0 -3-3 3 3 0 0 0 3 3zm0-4a1 1 0 1 1 -1 1 1 1 0 0 1 1-1z"/><path d="m43 38h2a1 1 0 0 0 0-2h-2a1 1 0 0 0 0 2z"/><path d="m43 42h2a1 1 0 0 0 0-2h-2a1 1 0 0 0 0 2z"/><path d="m49 38h2a1 1 0 0 0 0-2h-2a1 1 0 0 0 0 2z"/><path d="m49 42h2a1 1 0 0 0 0-2h-2a1 1 0 0 0 0 2z"/><path d="m55 38h2a1 1 0 0 0 0-2h-2a1 1 0 0 0 0 2z"/><path d="m55 42h2a1 1 0 0 0 0-2h-2a1 1 0 0 0 0 2z"/><path d="m21 58a3 3 0 1 0 -3-3 3 3 0 0 0 3 3zm0-4a1 1 0 1 1 -1 1 1 1 0 0 1 1-1z"/><path d="m29 58a3 3 0 1 0 -3-3 3 3 0 0 0 3 3zm0-4a1 1 0 1 1 -1 1 1 1 0 0 1 1-1z"/><path d="m37 58a3 3 0 1 0 -3-3 3 3 0 0 0 3 3zm0-4a1 1 0 1 1 -1 1 1 1 0 0 1 1-1z"/><path d="m43 54h2a1 1 0 0 0 0-2h-2a1 1 0 0 0 0 2z"/><path d="m43 58h2a1 1 0 0 0 0-2h-2a1 1 0 0 0 0 2z"/><path d="m49 54h2a1 1 0 0 0 0-2h-2a1 1 0 0 0 0 2z"/><path d="m49 58h2a1 1 0 0 0 0-2h-2a1 1 0 0 0 0 2z"/><path d="m55 54h2a1 1 0 0 0 0-2h-2a1 1 0 0 0 0 2z"/><path d="m55 58h2a1 1 0 0 0 0-2h-2a1 1 0 0 0 0 2z"/><path d="m21 26a3 3 0 1 0 -3-3 3 3 0 0 0 3 3zm0-4a1 1 0 1 1 -1 1 1 1 0 0 1 1-1z"/><path d="m29 26a3 3 0 1 0 -3-3 3 3 0 0 0 3 3zm0-4a1 1 0 1 1 -1 1 1 1 0 0 1 1-1z"/><path d="m37 26a3 3 0 1 0 -3-3 3 3 0 0 0 3 3zm0-4a1 1 0 1 1 -1 1 1 1 0 0 1 1-1z"/><path d="m61 30a1 1 0 0 0 1-1v-12a1 1 0 0 0 -1-1h-13v-3a3 3 0 0 0 -3-3h-1v-3a3 3 0 0 0 -3-3h-17.184a3 3 0 0 0 -2.816-2h-16a3 3 0 0 0 -3 3v40a1 1 0 0 0 1 1h16v2h-4a1 1 0 0 0 -1 1v12a1 1 0 0 0 1 1h46a1 1 0 0 0 1-1v-12a1 1 0 0 0 -1-1h-4v-2h4a1 1 0 0 0 1-1v-12a1 1 0 0 0 -1-1h-4v-2zm-1-2h-44v-10h44zm-18-21v3h-17a1 1 0 0 1 -1-1v-3h17a1 1 0 0 1 1 1zm-28 26v11h-10v-39a1 1 0 0 1 1-1h16a1 1 0 0 1 1 1v4a3 3 0 0 0 3 3h20a1 1 0 0 1 1 1v3h-31a1 1 0 0 0 -1 1v12a1 1 0 0 0 1 1h4v2h-4a1 1 0 0 0 -1 1zm46 27h-44v-10h44zm-5-12h-34v-2h34zm5-4h-44v-10h44zm-5-12h-34v-2h34z"/><path d="m43 22h2a1 1 0 0 0 0-2h-2a1 1 0 0 0 0 2z"/><path d="m43 26h2a1 1 0 0 0 0-2h-2a1 1 0 0 0 0 2z"/><path d="m49 22h2a1 1 0 0 0 0-2h-2a1 1 0 0 0 0 2z"/><path d="m49 26h2a1 1 0 0 0 0-2h-2a1 1 0 0 0 0 2z"/><path d="m55 22h2a1 1 0 0 0 0-2h-2a1 1 0 0 0 0 2z"/><path d="m55 26h2a1 1 0 0 0 0-2h-2a1 1 0 0 0 0 2z"/></g></g></svg>