<?xml version="1.0" encoding="iso-8859-1"?>
<!-- Generator: Adobe Illustrator 19.0.0, SVG Export Plug-In . SVG Version: 6.00 Build 0)  -->
<svg version="1.1" id="Capa_1" xmlns="http://www.w3.org/2000/svg" xmlns:xlink="http://www.w3.org/1999/xlink" x="0px" y="0px"
	 viewBox="0 0 511.56 511.56" style="enable-background:new 0 0 511.56 511.56;" xml:space="preserve">
<polygon style="fill:#FFFFFF;" points="486.828,105.844 463.952,97.609 476.346,63.299 507.462,48.663 "/>
<polygon style="fill:#965353;" points="463.952,97.609 315.998,507.241 341.748,507.561 486.828,105.844 "/>
<polygon style="fill:#D7E9FF;" points="463.952,97.609 315.998,507.241 341.748,507.561 486.828,105.844 "/>
<polygon style="fill:#FFFFFF;" points="323.995,507.241 471.028,100.155 463.952,97.609 315.998,507.241 341.748,507.561 
	341.787,507.46 "/>
<g>
	<polygon style="fill:#94C1FF;" points="232.024,499.563 232.024,507.561 315.998,507.241 345.879,424.532 	"/>
	<path style="fill:#94C1FF;" d="M459.953,507.561H341.748l1.444-4.077l25.266-69.979l11.521,4.155
		c11.676,5.678,23.031,10.56,31.989,13.917C443.958,463.574,459.953,475.571,459.953,507.561z"/>
	<path style="fill:#94C1FF;" d="M232.024,499.563v7.998H4.094c0-15.995,3.999-27.031,11.996-35.513
		c7.998-8.475,19.994-14.473,35.989-20.471c14.074-5.279,44.307-20.392,61.902-30.232l10.794,6.24L232.024,499.563z"/>
</g>
<path style="fill:#D7E9FF;" d="M337.35,412.63l11.355,4.076l-2.827,7.826l-16.604,10.653l-97.251,64.378l-107.248-71.978
	l-10.794-6.24c14.953-9.278,26.07-18.713,26.07-25.75v-31.99c28.632,33.912,64.699,55.982,91.972,55.982s63.339-22.07,91.971-55.982
	v31.99C323.995,400.39,329.197,406.388,337.35,412.63z"/>
<path style="fill:#94C1FF;" d="M337.35,412.63c-8.153-6.241-13.355-12.239-13.355-17.034v-31.99
	c-5.123,6.068-10.489,11.738-15.995,16.987v15.003c0,4.795,21.884,28.937,21.884,28.937l-16.604,10.653l-89.198,59.052l7.942,5.326
	l97.251-64.378l16.604-10.653l2.827-7.826L337.35,412.63z"/>
<path style="fill:#FFFFFF;" d="M140.771,427.586l-10.794-6.24c14.953-9.278,26.07-18.713,26.07-25.75v-15.003
	c-5.506-5.249-10.872-10.919-15.995-16.987v31.99c0,7.037-11.117,16.472-26.07,25.75l10.794,6.24l107.248,71.978l8.052-5.326
	L140.771,427.586z"/>
<g>
	<path style="fill:#5C9EFF;" d="M140.052,363.605v31.99c0,7.037-11.117,16.472-26.07,25.75l-5.92-9.755
		c-55.983-87.972-39.988-159.95-39.988-159.95v-15.996c5.436,3.039,20.712,11.356,30.791,16.714l-5.518,10.72
		C98.225,300.664,116.7,336.091,140.052,363.605z"/>
	<path style="fill:#5C9EFF;" d="M323.995,363.605v31.99c0,7.037,11.114,16.472,26.07,25.75l48.017-144.721
		c-0.07-15.809-2.109-40.981-2.109-40.981l-6.959,3.839c-5.436,3.038-13.753,7.518-23.836,12.875l5.521,10.72
		C365.818,300.664,347.347,336.091,323.995,363.605z"/>
</g>
<path style="fill:#E6E9ED;" d="M232.024,307.623c22.251,0,97.111-41.878,130.663-53.96c1.757-0.633,8.013,9.419,8.013,9.416
	l-13.714,54.206l-32.99,46.321c-28.632,33.912-64.698,55.982-91.971,55.982c-27.272,0-63.34-22.07-91.972-55.982
	c-23.352-27.515-41.827-62.941-46.704-100.527l5.518-10.72C139.092,273.633,207.313,307.623,232.024,307.623z"/>
<path style="fill:#D7E9FF;" d="M232.024,307.623c22.251,0,97.111-41.878,130.663-53.96c1.757-0.633,8.013,9.419,8.013,9.416
	l-13.714,54.206l-32.99,46.321c-28.632,33.912-64.698,55.982-91.971,55.982c-27.272,0-63.34-22.07-91.972-55.982
	c-23.352-27.515-41.827-62.941-46.704-100.527l5.518-10.72C139.092,273.633,207.313,307.623,232.024,307.623z"/>
<path style="fill:#FFFFFF;" d="M473.152,36.346l-29.756,40.949C231.946,0.838,85.588,49.303,80.469,50.983
	C84.71,46.984,185.64-42.27,473.152,36.346z"/>
<path style="fill:#94C1FF;" d="M232.024,67.696c131.958,0,163.949,167.948,163.949,167.948s-127.96,71.979-163.949,71.979
	c-24.711,0-92.932-33.99-133.158-55.265c-10.079-5.357-18.396-9.837-23.832-12.875c-4.401-2.397-6.959-3.839-6.959-3.839
	S100.065,67.696,232.024,67.696z"/>
<path style="fill:#5C9EFF;" d="M232.024,67.696c-2.729,0-5.354,0.18-7.997,0.32c125.203,6.662,155.952,167.628,155.952,167.628
	s-111.833,62.904-155.796,71.088c2.898,0.523,5.604,0.891,7.841,0.891c35.989,0,163.949-71.979,163.949-71.979
	S363.982,67.696,232.024,67.696z"/>
<path style="fill:#D7E9FF;" d="M114.861,252.358c-10.079-5.357-18.396-9.837-23.833-12.875c-4.401-2.397-6.958-3.839-6.958-3.839
	S114.814,74.678,240.021,68.016c-2.644-0.14-5.268-0.32-7.998-0.32c-131.959,0-163.949,167.948-163.949,167.948
	s2.558,1.441,6.959,3.839c5.436,3.038,13.753,7.518,23.832,12.875c40.226,21.275,108.447,55.265,133.158,55.265
	c2.343,0,5.092-0.32,8.154-0.891C211.066,301.484,151.443,271.704,114.861,252.358z"/>
<path style="fill:#FFFFFF;" d="M156.047,363.605c-18.939-22.321-34.536-49.875-42.405-79.538
	c-5.206-2.687-10.192-5.295-14.777-7.716c-1.23-0.656-2.347-1.25-3.522-1.875c6.791,33.311,23.735,64.418,44.709,89.129
	c28.632,33.912,64.699,55.982,91.972,55.982c2.585,0,5.268-0.258,7.998-0.647C213.955,415.238,181.965,394.306,156.047,363.605z"/>
<g>
	<path style="fill:#94C1FF;" d="M352.634,258.946c4.405-2.281,8.669-4.507,12.605-6.588
		C361.303,254.439,357.04,256.665,352.634,258.946L352.634,258.946z"/>
	<path style="fill:#94C1FF;" d="M308.054,363.605c18.939-22.321,34.536-49.875,42.409-79.538c5.201-2.687,10.185-5.295,14.776-7.716
		c1.227-0.656,2.343-1.25,3.515-1.875c-6.787,33.311-23.728,64.418-44.705,89.129c-28.632,33.912-64.698,55.982-91.971,55.982
		c-2.585,0-5.264-0.258-7.997-0.647C250.151,415.238,282.14,394.306,308.054,363.605z"/>
	<path style="fill:#94C1FF;" d="M95.343,274.476c1.176,0.625,2.292,1.219,3.522,1.875c40.226,21.274,108.447,55.264,133.158,55.264
		c25.269,0,95.83-35.465,135.653-56.6l3.022-11.938c0,0.004-6.256-10.048-8.013-9.416c0,0,0,0-0.008,0.004
		c-40.479,21.318-106.412,53.957-130.655,53.957c-24.711,0-92.932-33.99-133.158-55.265l-5.518,10.72
		C93.844,266.908,94.574,270.697,95.343,274.476z"/>
</g>
<g>
	<path style="fill:#116FFF;" d="M304.002,511.56H4.094c-2.21,0-3.999-1.789-3.999-3.999c0-16.636,4.159-28.788,13.086-38.254
		c7.588-8.045,18.803-14.465,37.492-21.47c15.496-5.819,35.622-15.23,51.277-23.985c3.366-1.874,6.725-3.819,9.849-5.857
		c17.901-11.106,24.254-18.846,24.254-22.399c0-2.21,1.789-3.999,3.999-3.999c2.21,0,3.999,1.789,3.999,3.999
		c0,7.936-9.146,17.471-27.96,29.147c-3.206,2.085-6.721,4.14-10.243,6.092c-19.385,10.841-39.761,19.76-52.363,24.484
		c-17.479,6.561-27.792,12.379-34.486,19.471c-6.736,7.146-10.215,16.354-10.812,28.772h295.815c2.21,0,3.998,1.789,3.998,3.999
		S306.212,511.56,304.002,511.56z"/>
	<path style="fill:#116FFF;" d="M459.953,511.56h-105.49c-2.211,0-3.999-1.789-3.999-3.999s1.788-3.999,3.999-3.999h101.398
		c-1.281-26.938-15.957-37.238-45.299-48.243c-9.599-3.593-21.08-8.591-32.334-14.065c-1.984-0.961-2.812-3.358-1.844-5.343
		c0.969-1.983,3.391-2.812,5.343-1.843c11.036,5.365,22.274,10.255,31.646,13.77c32.802,12.301,50.578,25.461,50.578,59.724
		C463.952,509.771,462.164,511.56,459.953,511.56z"/>
	<path style="fill:#116FFF;" d="M337.35,416.628c-0.852,0-1.702-0.265-2.429-0.819c-10.044-7.686-14.926-14.301-14.926-20.213
		c0-2.21,1.789-3.999,3.999-3.999s3.999,1.789,3.999,3.999c0,1.133,0.852,5.49,11.785,13.855c1.758,1.343,2.086,3.857,0.75,5.607
		C339.74,416.09,338.552,416.628,337.35,416.628z"/>
	<path style="fill:#116FFF;" d="M232.024,423.587c-28.284,0-65.585-22.532-95.025-57.404
		c-26.113-30.764-43.021-67.198-47.614-102.589c-0.285-2.191,1.258-4.198,3.448-4.479c2.159-0.289,4.194,1.258,4.479,3.448
		c4.396,33.884,20.657,68.842,45.79,98.458c27.991,33.153,62.895,54.569,88.922,54.569c26.027,0,60.934-21.416,88.917-54.562
		c25.141-29.624,41.401-64.59,45.791-98.466c0.289-2.19,2.226-3.718,4.482-3.452c2.188,0.285,3.733,2.292,3.452,4.483
		c-4.593,35.383-21.501,71.825-47.626,102.597C297.613,401.054,260.307,423.587,232.024,423.587z"/>
	<path style="fill:#116FFF;" d="M140.052,399.594c-2.21,0-3.999-1.789-3.999-3.999v-31.99c0-2.21,1.789-3.999,3.999-3.999
		c2.21,0,3.999,1.789,3.999,3.999v31.99C144.051,397.805,142.262,399.594,140.052,399.594z"/>
	<path style="fill:#116FFF;" d="M323.995,399.594c-2.21,0-3.999-1.789-3.999-3.999v-31.99c0-2.21,1.789-3.999,3.999-3.999
		s3.999,1.789,3.999,3.999v31.99C327.994,397.805,326.205,399.594,323.995,399.594z"/>
	<path style="fill:#116FFF;" d="M232.02,503.562c-0.766,0-1.539-0.219-2.226-0.68l-107.248-71.978
		c-1.832-1.227-2.32-3.718-1.09-5.546c1.226-1.843,3.71-2.335,5.549-1.093l107.249,71.978c1.832,1.227,2.32,3.718,1.089,5.545
		C234.573,502.945,233.309,503.562,232.02,503.562z"/>
	<path style="fill:#116FFF;" d="M232.028,503.562c-1.296,0-2.569-0.633-3.339-1.789c-1.218-1.843-0.714-4.326,1.129-5.545
		l97.247-64.379c1.836-1.226,4.319-0.71,5.545,1.125c1.219,1.844,0.711,4.327-1.124,5.545l-97.255,64.379
		C233.551,503.351,232.785,503.562,232.028,503.562z"/>
	<path style="fill:#116FFF;" d="M232.024,311.621c-24.512,0-86.958-30.303-135.028-55.729c-10.118-5.377-18.459-9.872-23.915-12.918
		c-4.393-2.394-6.97-3.846-6.97-3.846c-1.921-1.082-2.605-3.523-1.519-5.448c1.082-1.921,3.515-2.616,5.447-1.519
		c0.012,0.008,2.55,1.437,6.908,3.811c5.455,3.051,13.75,7.514,23.797,12.855c65.839,34.826,113.692,54.796,131.28,54.796
		c34.536,0,160.716-70.749,161.989-71.463c1.913-1.089,4.366-0.402,5.443,1.523c1.086,1.925,0.398,4.362-1.522,5.444
		C392.67,242.087,268.636,311.621,232.024,311.621z"/>
	<path style="fill:#116FFF;" d="M68.078,239.643c-0.246,0-0.5-0.023-0.754-0.07c-2.167-0.414-3.593-2.507-3.179-4.678
		c0.328-1.711,34.157-171.197,167.878-171.197c133.724,0,167.549,169.486,167.877,171.197c0.414,2.171-1.007,4.264-3.179,4.678
		c-2.132,0.391-4.264-1.007-4.678-3.179c-0.312-1.647-32.936-164.699-160.021-164.699c-127.18,0-159.708,163.052-160.021,164.699
		C71.636,238.308,69.96,239.643,68.078,239.643z"/>
	<path style="fill:#116FFF;" d="M108.066,415.59c-1.323,0-2.616-0.656-3.378-1.852c-56.225-88.355-41.187-159.962-40.519-162.965
		c0.477-2.152,2.577-3.526,4.768-3.034c2.156,0.476,3.515,2.608,3.042,4.764c-0.156,0.707-14.882,71.552,39.457,156.941
		c1.188,1.866,0.637,4.334-1.226,5.521C109.542,415.386,108.8,415.59,108.066,415.59z"/>
	<path style="fill:#116FFF;" d="M341.748,511.56c-0.445,0-0.891-0.07-1.336-0.227c-2.086-0.742-3.171-3.031-2.437-5.108l1.444-4.077
		L503.697,47.304c0.758-2.078,3.031-3.151,5.124-2.401c2.077,0.75,3.155,3.042,2.405,5.119L345.519,508.896
		C344.933,510.537,343.395,511.56,341.748,511.56z"/>
	<path style="fill:#116FFF;" d="M315.998,511.24c-0.453,0-0.906-0.078-1.359-0.234c-2.077-0.758-3.155-3.047-2.405-5.124
		L472.582,61.94c0.758-2.077,3.077-3.155,5.123-2.401c2.078,0.75,3.156,3.042,2.406,5.12L319.761,508.6
		C319.168,510.224,317.637,511.24,315.998,511.24z"/>
	<path style="fill:#116FFF;" d="M443.396,81.293c-0.453,0-0.914-0.078-1.359-0.238C239.084,7.676,98.158,49.412,81.926,54.712
		c-2.707,1.152-5.616-0.91-5.616-3.651c0-1.395,0.715-2.621,1.797-3.339c8.009-7.248,110.876-93.218,396.1-15.234
		c1.265,0.348,2.28,1.292,2.718,2.535c0.438,1.238,0.234,2.612-0.539,3.674l-29.757,40.949
		C445.864,80.703,444.645,81.293,443.396,81.293z M209.491,30.156c60.989,0,140.402,9.47,232.436,42.358l24.578-33.826
		c-218.182-58.508-325.558-19.856-365.012,2.54C123.658,36.233,160.667,30.156,209.491,30.156z"/>
	<path style="fill:#116FFF;" d="M507.462,52.661c-0.445,0-0.905-0.074-1.351-0.234L471.8,40.111
		c-2.077-0.746-3.154-3.038-2.413-5.115c0.75-2.074,3.03-3.151,5.116-2.414l34.31,12.317c2.077,0.746,3.155,3.038,2.413,5.115
		C510.64,51.646,509.102,52.661,507.462,52.661z"/>
	<path style="fill:#116FFF;" d="M486.828,109.843c-0.453,0-0.906-0.074-1.352-0.238L462.6,101.37
		c-2.077-0.746-3.163-3.038-2.413-5.116c0.75-2.082,3.054-3.167,5.115-2.406l22.876,8.236c2.078,0.746,3.163,3.039,2.413,5.116
		C490.007,108.828,488.468,109.843,486.828,109.843z"/>
</g>
<g>
</g>
<g>
</g>
<g>
</g>
<g>
</g>
<g>
</g>
<g>
</g>
<g>
</g>
<g>
</g>
<g>
</g>
<g>
</g>
<g>
</g>
<g>
</g>
<g>
</g>
<g>
</g>
<g>
</g>
</svg>
