<svg id="Icon_Set" enable-background="new 0 0 256 256" height="512" viewBox="0 0 256 256" width="512" xmlns="http://www.w3.org/2000/svg"><path d="m132.121 152.424v31.375c0 2.761-2.239 5-5 5h-92.78c-2.761 0-5-2.239-5-5v-31.375c0-21.161 12.921-39.183 30.195-46.804 2.005-.913 4.07-1.706 6.195-2.349 4.743-1.451 9.771-2.229 14.993-2.229s10.25.778 14.993 2.229c2.14.658 4.205 1.451 6.21 2.349 18.306 8.338 30.194 26.487 30.194 46.804z" fill="#3193f3"/><path d="m132.117 152.422v31.38c0 2.76-2.23 5-5 5h-15c2.77 0 5-2.24 5-5v-31.38c0-15.768-7.155-30.377-19.25-40.07-3.36-2.721-7.09-4.971-10.94-6.73-2.01-.9-4.07-1.69-6.21-2.35-2.43-.74-4.93-1.31-7.49-1.68 2.44-.36 4.95-.55 7.5-.55 5.22 0 10.25.78 14.99 2.23 2.14.66 4.2 1.45 6.21 2.35 18.652 8.524 30.19 26.817 30.19 46.8z" fill="#307fed"/><path d="m88.227 101.592c-2.57.37-5.07.94-7.5 1.68-2.12.64-4.19 1.44-6.19 2.35-17.457 7.703-30.2 25.792-30.2 46.8v31.38c0 2.76 2.24 5 5 5h-15c-2.76 0-5-2.24-5-5v-31.38c0-21.146 12.918-39.174 30.2-46.8 2-.91 4.07-1.71 6.19-2.35 4.75-1.45 9.77-2.23 15-2.23 2.55 0 5.05.19 7.5.55z" fill="#35b1fc"/><circle cx="169.02" cy="189.901" fill="#5fcdff" r="60.904"/><path d="m169.02 215.167-12.486-60.178c-1.642-7.916 4.401-15.342 12.486-15.342 8.084 0 14.128 7.426 12.486 15.342z" fill="#ff4a73"/><path d="m229.927 189.902c0 33.64-27.27 60.9-60.91 60.9-2.54 0-5.04-.16-7.5-.46 30.1-3.69 53.41-29.34 53.41-60.44s-23.31-56.76-53.41-60.45c2.46-.3 4.96-.46 7.5-.46 33.64 0 60.91 27.27 60.91 60.91z" fill="#30b6ff"/><path d="m176.517 250.342c-2.46.3-4.96.46-7.5.46-33.63 0-60.9-27.26-60.9-60.9s27.27-60.91 60.9-60.91c2.54 0 5.04.16 7.5.46-30.09 3.69-53.4 29.35-53.4 60.45s23.31 56.75 53.4 60.44z" fill="#73d7f9"/><path d="m166.537 154.992 7.48 36.07-5 24.1-12.48-60.17c-1.64-7.92 4.4-15.35 12.48-15.35 1.79 0 3.47.36 5 1.01-5.38 2.3-8.76 8.17-7.48 14.34z" fill="#f973a3"/><path d="m101.926 105.62c-10.076 17.457-15.736 27.253-15.711 27.211-2.44 4.225-8.54 4.224-10.978-.003-10.477-18.161-7.047-12.217-15.701-27.209 2.005-.913 4.07-1.706 6.195-2.349 4.743-1.451 9.771-2.229 14.993-2.229s10.25.778 14.993 2.229c2.139.659 4.204 1.452 6.209 2.35z" fill="#ffbb98"/><path d="m89.387 127.352-3.17 5.48c-2.44 4.22-8.54 4.22-10.98 0-10.598-18.379-7.02-12.177-15.7-27.21 2-.91 4.07-1.71 6.19-2.35 3.05-.93 6.2-1.58 9.46-1.93-.22.09-.43.18-.65.28 8.556 14.819 5.13 8.882 14.85 25.73z" fill="#ffcaa6"/><g fill="#ffbb98"><path d="m45.321 82.652c-1.87 1.077-4.055 1.691-6.389 1.691-7.077 0-12.823-5.746-12.823-12.823 0-7.092 5.746-12.838 12.823-12.838 1.302 0 2.559.195 3.741.554-.494 2.454-.748 4.968-.748 7.556 0 5.656 1.212 11.012 3.396 15.86z"/><path d="m135.338 71.52c0 7.077-5.731 12.823-12.823 12.823-2.319 0-4.504-.629-6.389-1.706 2.185-4.833 3.397-10.205 3.397-15.846 0-2.589-.254-5.102-.748-7.556 1.182-.359 2.439-.554 3.741-.554 7.091.001 12.822 5.746 12.822 12.839z"/><circle cx="80.729" cy="66.796" r="38.797"/></g><path d="m119.527 66.792c0 21.43-17.37 38.8-38.8 38.8-2.56 0-5.07-.25-7.5-.73 17.84-3.49 31.3-19.21 31.3-38.07s-13.46-34.57-31.3-38.06c2.43-.48 4.94-.73 7.5-.73 21.43 0 38.8 17.37 38.8 38.79z" fill="#ffaa80"/><path d="m88.227 104.862c-2.43.48-4.94.73-7.5.73-21.43 0-38.8-17.37-38.8-38.8 0-21.42 17.37-38.79 38.8-38.79 2.56 0 5.07.25 7.5.73-17.84 3.49-31.3 19.2-31.3 38.06s13.46 34.58 31.3 38.07z" fill="#ffcaa6"/><path d="m29.341 56.602v4.908h9.696c6.748 0 12.988-3.935 16.369-10.339l5.432-10.339 5.447 10.339c1.691 3.202 4.1 5.791 6.928 7.571 2.813 1.781 6.075 2.768 9.442 2.768h49.467v-4.908c0-28.382-23.015-51.382-51.383-51.382-14.104 0-26.982 5.69-36.345 15.053-9.307 9.291-15.053 22.129-15.053 36.329z" fill="#b76c6c"/><path d="m132.117 56.602v4.91h-15v-4.91c0-25.84-19.07-47.21-43.89-50.83 2.335-.348 4.894-.55 7.51-.55 28.355 0 51.38 22.977 51.38 51.38z" fill="#965959"/><path d="m88.227 5.772c-11.19 1.63-21.2 6.86-28.83 14.5-9.31 9.29-15.06 22.13-15.06 36.33v4.08c-1.7.55-3.48.83-5.3.83h-9.7v-4.91c0-14.2 5.75-27.04 15.06-36.33 9.61-9.621 22.587-15.05 36.34-15.05 2.55 0 5.11.194 7.49.55z" fill="#c98585"/><path d="m169.017 124.992c-13.1 0-25.3 3.9-35.51 10.61-4.66-14.638-15.303-26.747-29.05-33.21 5.6-3.74 10.27-8.77 13.59-14.66 1.46.4 2.96.61 4.47.61 13.731 0 21.663-15.664 13.59-26.72.01-.04.01-.07.01-.11 0-38.996-25.984-59.316-53.39-60.26-26.005-1.201-57.39 17.391-57.39 60.36-9.327 12.772 2.78 30.446 18.08 26.12 3.31 5.89 7.98 10.92 13.58 14.66-17.49 8.035-31.66 26.895-31.66 50.03v31.38c0 4.96 4.04 9 9 9h69.84c1.53 34.45 30.02 62 64.84 62 35.79 0 64.91-29.11 64.91-64.9s-29.12-64.91-64.91-64.91zm0 121.81c-30.4 0-55.31-23.96-56.83-54-1.7-32.646 24.545-59.81 56.83-59.81 31.38 0 56.91 25.53 56.91 56.91s-25.53 56.9-56.91 56.9zm-135.68-63v-31.38c0-17.895 9.938-33.522 24.62-41.53l13.81 23.94c3.986 6.886 13.924 6.907 17.91 0l13.83-23.95c12.45 7.115 20.076 17.752 23.16 29.88-12.6 10.86-20.98 26.48-22.35 44.04h-69.98c-.55 0-1-.45-1-1zm6.76-103.53c-8.22 1.083-13.216-8.745-7.62-14.76h5.47c-.131 5.649.647 9.823 2.15 14.76zm42.29-71.03c24.526.843 45.73 20.236 45.73 48.27-13.887 0-30.906 0-45.46 0-10.338 0-13.606-9.682-18.28-18.55-1.491-2.84-5.59-2.84-7.08.01-5.364 10.184-7.104 15.563-14.07 17.85h-.01c-2.589.869-3.959.69-9.88.69 0-29.126 23.288-49.144 49.05-48.27zm38.97 71.02c1.501-4.416 2.276-9.453 2.15-14.75h5.47c5.542 5.998.659 15.813-7.62 14.75zm-75.33-15.93c5.39-1.87 10.04-5.85 12.92-11.3l1.9-3.61 1.9 3.62c4.005 7.568 11.532 12.47 19.91 12.47h32.84c1.143 49.109-73.01 46.606-69.47-1.18zm48.83 42.86c.58.182 1.006.335 1.29.43l-13.4 23.21c-.954 1.6-3.166 1.521-4.05 0l-13.39-23.22c.477-.159.894-.303 1.28-.42 9.017 3.155 19.076 3.245 28.27 0z" fill="#5f266d"/><path d="m169.017 135.642c-10.605 0-18.559 9.762-16.4 20.16l12.49 60.18c.863 4.204 6.937 4.238 7.83 0l12.49-60.18c2.144-10.426-5.801-20.16-16.41-20.16zm0 8c5.548 0 9.702 5.102 8.57 10.53l-8.57 41.3-8.57-41.3c-1.115-5.447 3.03-10.53 8.57-10.53z" fill="#5f266d"/><path d="m169.017 225.782c-4.42 0-8.01 3.59-8.01 8.01 0 4.43 3.59 8.02 8.01 8.02 4.43 0 8.02-3.59 8.02-8.02 0-4.42-3.59-8.01-8.02-8.01z" fill="#5f266d"/></svg>