<svg id="Capa_1" enable-background="new 0 0 511.292 511.292" height="512" viewBox="0 0 511.292 511.292" width="512" xmlns="http://www.w3.org/2000/svg"><g id="XMLID_479_"><path id="XMLID_243_" d="m114.016 72.833h30v109.667h-30z" fill="#f1c992"/><path id="XMLID_191_" d="m367.277 72.833h30v109.678h-30z" fill="#db9f50"/><ellipse id="XMLID_181_" cx="255.646" cy="313.845" fill="#f8e5ca" rx="197.448" ry="197.448" transform="matrix(.707 -.707 .707 .707 -147.045 272.692)"/><path id="XMLID_164_" d="m255.647 116.397c-.001 0-.001 0 0 0v394.896c108.873 0 197.447-88.575 197.447-197.448s-88.574-197.448-197.447-197.448z" fill="#f1c992"/><path id="XMLID_1947_" d="m211.147 384.333h89v30h-89z" fill="#d97f4a"/><path id="XMLID_130_" d="m68.67 0h373.952v87.833h-373.952z" fill="#d97f4a"/><path id="XMLID_55_" d="m255.646 0h186.976v87.833h-186.976z" fill="#b35f49"/><path id="XMLID_631_" d="m255.644 384.333h44.502v30h-44.502z" fill="#b35f49"/><path id="XMLID_173_" d="m166.352 268.49h-30.409v10.084h28.167v26h-28.167v10.085h30.409v26h-56.409v-98.169h56.409z" fill="#ff641a"/><path id="XMLID_145_" d="m188.566 326.307 26.053-36.982-22.861-32.496 21.265-14.96 17.501 24.878 17.528-24.88 21.255 14.973-22.892 32.495 26.018 36.984-21.265 14.96-20.658-29.366-20.689 29.368z" fill="#ff641a"/><g fill="#ff001e"><path id="XMLID_505_" d="m255.644 302.454v35.676l16.789-11.811z"/><path id="XMLID_506_" d="m255.644 276.234 13.663-19.394-13.663-9.625z"/><path id="XMLID_142_" d="m289.216 242.157h26v98.834h-26z"/><path id="XMLID_136_" d="m384.276 268.157v72.834h-26v-72.834h-20.031v-26h66.224v26z"/></g></g></svg>