<svg id="Gradient" enable-background="new 0 0 512 512" height="512" viewBox="0 0 512 512" width="512" xmlns="http://www.w3.org/2000/svg" xmlns:xlink="http://www.w3.org/1999/xlink"><linearGradient id="lg1"><stop offset="0" stop-color="#12c2e9"/><stop offset=".056" stop-color="#19bfe9"/><stop offset=".137" stop-color="#2db6ea"/><stop offset=".235" stop-color="#4da7ea"/><stop offset=".344" stop-color="#7993eb"/><stop offset=".462" stop-color="#b279ed"/><stop offset=".497" stop-color="#c471ed"/><stop offset="1" stop-color="#f64f59"/></linearGradient><linearGradient id="SVGID_1_" gradientUnits="userSpaceOnUse" x1="267.478" x2="217.632" xlink:href="#lg1" y1="548.479" y2="-16.444"/><linearGradient id="SVGID_2_" gradientUnits="userSpaceOnUse" x1="297.339" x2="247.493" xlink:href="#lg1" y1="545.844" y2="-19.079"/><linearGradient id="SVGID_3_" gradientUnits="userSpaceOnUse" x1="197.878" x2="148.032" xlink:href="#lg1" y1="554.62" y2="-10.303"/><linearGradient id="SVGID_4_" gradientUnits="userSpaceOnUse" x1="273.058" x2="223.212" xlink:href="#lg1" y1="547.987" y2="-16.937"/><linearGradient id="SVGID_5_" gradientUnits="userSpaceOnUse" x1="181.535" x2="131.689" xlink:href="#lg1" y1="556.062" y2="-8.861"/><linearGradient id="SVGID_6_" gradientUnits="userSpaceOnUse" x1="146.513" x2="96.667" xlink:href="#lg1" y1="559.152" y2="-5.771"/><linearGradient id="SVGID_7_" gradientUnits="userSpaceOnUse" x1="348.704" x2="298.858" xlink:href="#lg1" y1="541.312" y2="-23.611"/><linearGradient id="SVGID_8_" gradientUnits="userSpaceOnUse" x1="161.923" x2="112.077" xlink:href="#lg1" y1="557.793" y2="-7.131"/><linearGradient id="SVGID_9_" gradientUnits="userSpaceOnUse" x1="212.821" x2="162.975" xlink:href="#lg1" y1="553.302" y2="-11.622"/><linearGradient id="SVGID_10_" gradientUnits="userSpaceOnUse" x1="133.439" x2="83.593" xlink:href="#lg1" y1="560.306" y2="-4.617"/><linearGradient id="SVGID_11_" gradientUnits="userSpaceOnUse" x1="129.703" x2="79.857" xlink:href="#lg1" y1="560.635" y2="-4.288"/><linearGradient id="SVGID_12_" gradientUnits="userSpaceOnUse" x1="174.531" x2="124.684" xlink:href="#lg1" y1="556.68" y2="-8.243"/><linearGradient id="SVGID_13_" gradientUnits="userSpaceOnUse" x1="209.085" x2="159.239" xlink:href="#lg1" y1="553.631" y2="-11.292"/><linearGradient id="SVGID_14_" gradientUnits="userSpaceOnUse" x1="391.663" x2="341.817" xlink:href="#lg1" y1="537.521" y2="-27.402"/><g><path d="m32 456c.025 22.081 17.919 39.975 40 40h296c61.851.006 111.996-50.129 112.002-111.98.004-43.264-24.912-82.66-64.002-101.199v-162.821c0-2.122-.843-4.157-2.343-5.657l-96-96c-1.5-1.5-3.535-2.343-5.657-2.343h-240c-22.081.025-39.975 17.919-40 40zm432-72c0 53.019-42.981 96-96 96s-96-42.981-96-96 42.981-96 96-96c52.995.06 95.94 43.005 96 96zm-144-340.687 68.687 68.687h-44.687c-13.249-.015-23.985-10.751-24-24zm-272 12.687c.015-13.248 10.752-23.985 24-24h232v56c.025 22.081 17.919 39.975 40 40h56v148.666c-59.265-17.683-121.643 16.025-139.327 75.289-14.627 49.023 5.828 101.725 49.696 128.045h-238.369c-13.248-.015-23.985-10.752-24-24z" fill="url(#SVGID_1_)"/><path d="m160 168c0 4.418 3.582 8 8 8h192c4.418 0 8-3.582 8-8s-3.582-8-8-8h-192c-4.418 0-8 3.582-8 8z" fill="url(#SVGID_2_)"/><path d="m88 224h160c4.418 0 8-3.582 8-8s-3.582-8-8-8h-160c-4.418 0-8 3.582-8 8s3.582 8 8 8z" fill="url(#SVGID_3_)"/><path d="m280 256h-64c-4.418 0-8 3.582-8 8s3.582 8 8 8h64c4.418 0 8-3.582 8-8s-3.582-8-8-8z" fill="url(#SVGID_4_)"/><path d="m88 320h144c4.418 0 8-3.582 8-8s-3.582-8-8-8h-144c-4.418 0-8 3.582-8 8s3.582 8 8 8z" fill="url(#SVGID_5_)"/><path d="m88 176h48c4.418 0 8-3.582 8-8s-3.582-8-8-8h-48c-4.418 0-8 3.582-8 8s3.582 8 8 8z" fill="url(#SVGID_6_)"/><path d="m360 208h-80c-4.418 0-8 3.582-8 8s3.582 8 8 8h80c4.418 0 8-3.582 8-8s-3.582-8-8-8z" fill="url(#SVGID_7_)"/><path d="m88 272h96c4.418 0 8-3.582 8-8s-3.582-8-8-8h-96c-4.418 0-8 3.582-8 8s3.582 8 8 8z" fill="url(#SVGID_8_)"/><path d="m216 400h-32c-4.418 0-8 3.582-8 8s3.582 8 8 8h32c4.418 0 8-3.582 8-8s-3.582-8-8-8z" fill="url(#SVGID_9_)"/><path d="m88 416h64c4.418 0 8-3.582 8-8s-3.582-8-8-8h-64c-4.418 0-8 3.582-8 8s3.582 8 8 8z" fill="url(#SVGID_10_)"/><path d="m88 368h48c4.418 0 8-3.582 8-8s-3.582-8-8-8h-48c-4.418 0-8 3.582-8 8s3.582 8 8 8z" fill="url(#SVGID_11_)"/><path d="m88 128h96c4.418 0 8-3.582 8-8s-3.582-8-8-8h-96c-4.418 0-8 3.582-8 8s3.582 8 8 8z" fill="url(#SVGID_12_)"/><path d="m216 352h-48c-4.418 0-8 3.582-8 8s3.582 8 8 8h48c4.418 0 8-3.582 8-8s-3.582-8-8-8z" fill="url(#SVGID_13_)"/><path d="m322.879 329.854c-3.395 2.828-3.854 7.873-1.026 11.267 0 0 0 .001.001.001 0 0 30.333 36.449 39.97 47.964.971 1.161 2.556 2.512 5.331 2.87.28.036.563.044.845.044h56c4.418 0 8-3.582 8-8s-3.582-8-8-8h-52.253l-37.6-45.122c-2.828-3.394-7.873-3.853-11.268-1.024z" fill="url(#SVGID_14_)"/></g></svg>