<svg height="512" viewBox="0 0 64 64" width="512" xmlns="http://www.w3.org/2000/svg" xmlns:xlink="http://www.w3.org/1999/xlink"><linearGradient id="New_Gradient_Swatch_1" gradientUnits="userSpaceOnUse" x1="9" x2="9" y1="1.484" y2="66.869"><stop offset="0" stop-color="#fff33b"/><stop offset=".014" stop-color="#fee72e"/><stop offset=".042" stop-color="#fed51b"/><stop offset=".07" stop-color="#fdca10"/><stop offset=".1" stop-color="#fdc70c"/><stop offset=".4" stop-color="#f3903f"/><stop offset=".8" stop-color="#ed683c"/><stop offset="1" stop-color="#e93e3a"/></linearGradient><linearGradient id="New_Gradient_Swatch_1-2" x1="17" x2="17" xlink:href="#New_Gradient_Swatch_1" y1="1.484" y2="66.869"/><linearGradient id="New_Gradient_Swatch_1-3" x1="32" x2="32" xlink:href="#New_Gradient_Swatch_1" y1="1.484" y2="66.869"/><linearGradient id="New_Gradient_Swatch_1-4" x1="24" x2="24" xlink:href="#New_Gradient_Swatch_1" y1="1.484" y2="66.869"/><linearGradient id="New_Gradient_Swatch_1-6" x1="30" x2="30" xlink:href="#New_Gradient_Swatch_1" y1="1.484" y2="66.869"/><path d="m9 13a3 3 0 1 0 3 3 3 3 0 0 0 -3-3zm0 4a1 1 0 1 1 1-1 1 1 0 0 1 -1 1z" fill="url(#New_Gradient_Swatch_1)"/><path d="m17 13a3 3 0 1 0 3 3 3 3 0 0 0 -3-3zm0 4a1 1 0 1 1 1-1 1 1 0 0 1 -1 1z" fill="url(#New_Gradient_Swatch_1-2)"/><path d="m35 23a1 1 0 0 0 1-1v-1h16.1a5 5 0 1 0 0-2h-16.1v-2h3a1 1 0 0 0 1-1v-7h12.1a5 5 0 1 0 0-2h-13.1a1 1 0 0 0 -1 1v7h-2v-5a1 1 0 0 0 -1-1h-32a1 1 0 0 0 -1 1v12a1 1 0 0 0 1 1h3v2h-3a1 1 0 0 0 -1 1v12a1 1 0 0 0 1 1h3v2h-3a1 1 0 0 0 -1 1v12a1 1 0 0 0 1 1h32a1 1 0 0 0 1-1v-5h2v7a1 1 0 0 0 1 1h13.1a5 5 0 1 0 0-2h-12.1v-7a1 1 0 0 0 -1-1h-3v-2h16.1a5 5 0 1 0 0-2h-16.1v-1a1 1 0 0 0 -1-1h-3v-2h3a1 1 0 0 0 1-1v-5h16.1a5 5 0 1 0 0-2h-16.1v-5a1 1 0 0 0 -1-1h-3v-2zm22-6a3 3 0 1 1 -3 3 3 3 0 0 1 3-3zm0-12a3 3 0 1 1 -3 3 3 3 0 0 1 3-3zm0 48a3 3 0 1 1 -3 3 3 3 0 0 1 3-3zm0-12a3 3 0 1 1 -3 3 3 3 0 0 1 3-3zm0-12a3 3 0 1 1 -3 3 3 3 0 0 1 3-3zm-53-18h30v10h-30zm30 42h-30v-10h30zm-4-12h-22v-2h22zm4-4h-30v-10h30zm-4-12h-22v-2h22z" fill="url(#New_Gradient_Swatch_1-3)"/><path d="m25 13h-2a1 1 0 0 0 0 2h2a1 1 0 0 0 0-2z" fill="url(#New_Gradient_Swatch_1-4)"/><path d="m25 17h-2a1 1 0 0 0 0 2h2a1 1 0 0 0 0-2z" fill="url(#New_Gradient_Swatch_1-4)"/><path d="m31 13h-2a1 1 0 0 0 0 2h2a1 1 0 0 0 0-2z" fill="url(#New_Gradient_Swatch_1-6)"/><path d="m31 17h-2a1 1 0 0 0 0 2h2a1 1 0 0 0 0-2z" fill="url(#New_Gradient_Swatch_1-6)"/><path d="m9 35a3 3 0 1 0 -3-3 3 3 0 0 0 3 3zm0-4a1 1 0 1 1 -1 1 1 1 0 0 1 1-1z" fill="url(#New_Gradient_Swatch_1)"/><path d="m17 35a3 3 0 1 0 -3-3 3 3 0 0 0 3 3zm0-4a1 1 0 1 1 -1 1 1 1 0 0 1 1-1z" fill="url(#New_Gradient_Swatch_1-2)"/><path d="m23 31h2a1 1 0 0 0 0-2h-2a1 1 0 0 0 0 2z" fill="url(#New_Gradient_Swatch_1-4)"/><path d="m23 35h2a1 1 0 0 0 0-2h-2a1 1 0 0 0 0 2z" fill="url(#New_Gradient_Swatch_1-4)"/><path d="m29 31h2a1 1 0 0 0 0-2h-2a1 1 0 0 0 0 2z" fill="url(#New_Gradient_Swatch_1-6)"/><path d="m29 35h2a1 1 0 0 0 0-2h-2a1 1 0 0 0 0 2z" fill="url(#New_Gradient_Swatch_1-6)"/><path d="m9 51a3 3 0 1 0 -3-3 3 3 0 0 0 3 3zm0-4a1 1 0 1 1 -1 1 1 1 0 0 1 1-1z" fill="url(#New_Gradient_Swatch_1)"/><path d="m17 51a3 3 0 1 0 -3-3 3 3 0 0 0 3 3zm0-4a1 1 0 1 1 -1 1 1 1 0 0 1 1-1z" fill="url(#New_Gradient_Swatch_1-2)"/><path d="m23 47h2a1 1 0 0 0 0-2h-2a1 1 0 0 0 0 2z" fill="url(#New_Gradient_Swatch_1-4)"/><path d="m23 51h2a1 1 0 0 0 0-2h-2a1 1 0 0 0 0 2z" fill="url(#New_Gradient_Swatch_1-4)"/><g fill="url(#New_Gradient_Swatch_1-6)"><path d="m29 47h2a1 1 0 0 0 0-2h-2a1 1 0 0 0 0 2z"/><path d="m29 51h2a1 1 0 0 0 0-2h-2a1 1 0 0 0 0 2z"/></g></svg>