<?xml version="1.0" encoding="iso-8859-1"?>
<!-- Generator: Adobe Illustrator 19.0.0, SVG Export Plug-In . SVG Version: 6.00 Build 0)  -->
<svg version="1.1" id="Capa_1" xmlns="http://www.w3.org/2000/svg" xmlns:xlink="http://www.w3.org/1999/xlink" x="0px" y="0px"
	 viewBox="0 0 512 512" style="enable-background:new 0 0 512 512;" xml:space="preserve">
<path style="fill:#DEDFDF;" d="M149.588,491.695l281.271-102.374c9.957-3.624,15.091-14.634,11.467-24.592L318.492,24.496
	c-3.624-9.957-14.634-15.092-24.592-11.467L12.629,115.403c-9.957,3.624-15.091,14.634-11.467,24.592l123.835,340.233
	C128.62,490.185,139.63,495.319,149.588,491.695z"/>
<path style="fill:#1BC56E;" d="M142.564,385.624l225.493-82.073c4.948-1.801,7.499-7.272,5.698-12.22L291.683,65.837
	c-1.801-4.948-7.272-7.499-12.22-5.698L53.97,142.212c-4.948,1.801-7.499,7.272-5.698,12.22l82.073,225.493
	C132.145,384.873,137.616,387.424,142.564,385.624z"/>
<path style="opacity:0.15;enable-background:new    ;" d="M442.326,364.729L345.86,99.692H158.753
	c-10.596,0-19.187,8.59-19.187,19.187v362.068c0,4.495,1.557,8.619,4.145,11.889c1.957-0.07,3.936-0.434,5.876-1.14l281.272-102.375
	C440.816,385.697,445.95,374.687,442.326,364.729z"/>
<path style="fill:#DEDFDF;" d="M492.812,500.133H193.49c-10.596,0-19.187-8.59-19.187-19.187V118.878
	c0-10.596,8.59-19.187,19.187-19.187h299.323c10.596,0,19.187,8.59,19.187,19.187v362.068
	C511.999,491.543,503.409,500.133,492.812,500.133z"/>
<path style="opacity:0.15;enable-background:new    ;" d="M492.813,99.692h-14.021c10.596,0,19.187,8.59,19.187,19.187v362.068
	c0,10.596-8.59,19.187-19.187,19.187h14.021c10.596,0,19.186-8.59,19.186-19.187V118.878
	C511.999,108.282,503.409,99.692,492.813,99.692z"/>
<path style="fill:#FFFFFF;" d="M463.134,398.056H223.169c-5.266,0-9.534-4.268-9.534-9.534V148.557c0-5.265,4.269-9.534,9.534-9.534
	h239.965c5.266,0,9.534,4.269,9.534,9.534v239.965C472.668,393.788,468.399,398.056,463.134,398.056z"/>
<path style="fill:#0079D0;" d="M423.775,295.085L423.775,295.085c-14.948-14.585-38.801-14.585-53.749,0l0,0
	c-14.948,14.585-38.801,14.585-53.749,0l0,0c-14.948-14.585-38.801-14.585-53.749,0l0,0c-13.418,13.092-34.006,14.423-48.893,4.012
	v89.425c0,5.266,4.269,9.534,9.534,9.534h239.965c5.266,0,9.534-4.268,9.534-9.534v-89.425
	C457.781,309.509,437.192,308.177,423.775,295.085z"/>
<g>
	<path style="fill:#F8CF32;" d="M472.668,353.563H213.635v34.959c0,5.266,4.269,9.534,9.534,9.534h239.965
		c5.266,0,9.534-4.268,9.534-9.534V353.563z"/>
	<circle style="fill:#F8CF32;" cx="276.859" cy="205.88" r="35.914"/>
</g>
<path style="fill:#0079D0;" d="M464.889,190.627c-9.492-12.549-24.542-20.662-41.49-20.662c-19.244,0-36.034,10.463-45.025,26.002
	c-11.786,0.07-21.713,7.98-24.827,18.779c-1.042,3.613,1.702,7.215,5.462,7.215h113.658v-30.16
	C470.186,191.101,467.581,190.692,464.889,190.627z"/>
<g>
</g>
<g>
</g>
<g>
</g>
<g>
</g>
<g>
</g>
<g>
</g>
<g>
</g>
<g>
</g>
<g>
</g>
<g>
</g>
<g>
</g>
<g>
</g>
<g>
</g>
<g>
</g>
<g>
</g>
</svg>
