<svg id="Layer_1" enable-background="new 0 0 512 512" height="512" viewBox="0 0 512 512" width="512" xmlns="http://www.w3.org/2000/svg" xmlns:xlink="http://www.w3.org/1999/xlink"><linearGradient id="SVGID_1_" gradientUnits="userSpaceOnUse" x1="256" x2="256" y1="0" y2="512"><stop offset="0" stop-color="#2af598"/><stop offset="1" stop-color="#009efd"/></linearGradient><path d="m432 392v-147c0-30.454-14.406-57.603-36.759-75 22.353-17.397 36.759-44.546 36.759-75 0-52.383-42.617-95-95-95h-242c-52.383 0-95 42.617-95 95 0 30.454 14.406 57.603 36.759 75-22.353 17.397-36.759 44.546-36.759 75 0 52.383 42.617 95 95 95h55v112c0 33.084 26.916 60 60 60h242c33.084 0 60-26.916 60-60v-60zm-40-297c0 30.327-24.673 55-55 55h-164.581c11.066-15.532 17.581-34.519 17.581-55s-6.515-39.468-17.581-55h164.581c30.327 0 55 24.673 55 55zm-352 0c0-30.327 24.673-55 55-55s55 24.673 55 55-24.673 55-55 55-55-24.673-55-55zm0 150c0-30.327 24.673-55 55-55s55 24.673 55 55-24.673 55-55 55-55-24.673-55-55zm150 207v-207c0-20.481-6.515-39.468-17.581-55h164.581c30.327 0 55 24.673 55 55v147h-162v60c0 11.028-8.972 20-20 20s-20-8.972-20-20zm282 0c0 11.028-8.972 20-20 20h-185.44c2.22-6.26 3.44-12.989 3.44-20v-20h202z" fill="url(#SVGID_1_)"/></svg>