<svg id="GD001" height="512" viewBox="0 0 512 512" width="512" xmlns="http://www.w3.org/2000/svg" xmlns:xlink="http://www.w3.org/1999/xlink"><linearGradient id="New_Gradient_Swatch_2" gradientUnits="userSpaceOnUse" x1="208.113" x2="208.113" y1="27.912" y2="451.268"><stop offset="0" stop-color="#fc5c7d"/><stop offset=".129" stop-color="#f35e85"/><stop offset=".343" stop-color="#d9659b"/><stop offset=".616" stop-color="#b070bf"/><stop offset=".934" stop-color="#777ff0"/><stop offset="1" stop-color="#6a82fb"/></linearGradient><linearGradient id="New_Gradient_Swatch_2-2" x1="303.887" x2="303.887" xlink:href="#New_Gradient_Swatch_2" y1="27.912" y2="451.268"/><linearGradient id="New_Gradient_Swatch_2-3" x1="256" x2="256" xlink:href="#New_Gradient_Swatch_2" y1="27.912" y2="451.268"/><path d="m197.884 207.266a32.864 32.864 0 0 0 41.928-20.053 8 8 0 0 0 -4.881-10.206l-46.894-16.551a8 8 0 0 0 -10.206 4.881 32.9 32.9 0 0 0 20.053 41.929zm22.272-18.507a16.879 16.879 0 0 1 -28-9.884z" fill="url(#New_Gradient_Swatch_2)"/><path d="m289 205.923a32.864 32.864 0 0 0 45.17-40.586 8 8 0 0 0 -10.206-4.881l-46.894 16.551a8 8 0 0 0 -4.881 10.206 32.646 32.646 0 0 0 16.811 18.71zm30.85-27.048a16.869 16.869 0 0 1 -28 9.884z" fill="url(#New_Gradient_Swatch_2-2)"/><g fill="url(#New_Gradient_Swatch_2-3)"><path d="m280.9 260.318c-.257.476-6.51 11.682-24.9 11.682s-24.641-11.206-24.9-11.682l.053.1-14.31 7.156c.419.838 10.542 20.426 39.157 20.426s38.738-19.588 39.155-20.422l-14.31-7.156z"/><path d="m346.38 292.09a96.923 96.923 0 0 0 21.62-60.968v-7.122a32 32 0 0 0 0-64v-16h8a8 8 0 0 0 8-8v-32a8 8 0 0 0 -8-8h-.367a88.118 88.118 0 0 0 -87.633-80h-64a88.118 88.118 0 0 0 -87.633 80h-.367a8 8 0 0 0 -8 8v32a8 8 0 0 0 8 8h8v16a32 32 0 0 0 0 64v7.122a96.928 96.928 0 0 0 21.619 60.968 88.266 88.266 0 0 0 -61.619 83.91v80a40.045 40.045 0 0 0 40 40h224a40.045 40.045 0 0 0 40-40v-80a88.266 88.266 0 0 0 -61.62-83.91zm-114.38 35.496c2.938.269 5.9.414 8.878.414h30.244c2.979 0 5.94-.145 8.878-.414v.414a24 24 0 1 1 -48 0zm39.122-15.586h-30.244a80.829 80.829 0 0 1 -80.368-72h190.98a80.831 80.831 0 0 1 -80.368 72zm112.878-120a16.019 16.019 0 0 1 -16 16v-32a16.019 16.019 0 0 1 16 16zm-16-64h-224v-16h224zm-72.742-72.819a76.635 76.635 0 0 1 16.342 40.819h-47.6v-61.91a62.042 62.042 0 0 1 31.258 21.091zm-47.258-21.091v61.91h-47.6a76.635 76.635 0 0 1 16.338-40.819 62.042 62.042 0 0 1 31.262-21.091zm111.545 61.91h-31.872c-2.1-26.178-14.414-49.126-32.71-63.657a72.12 72.12 0 0 1 64.582 63.657zm-142.508-63.657c-18.3 14.531-30.61 37.479-32.71 63.657h-31.872a72.12 72.12 0 0 1 64.582-63.657zm134.963 111.657v80h-192v-80zm-224 48a16.019 16.019 0 0 1 16-16v32a16.019 16.019 0 0 1 -16-16zm96 288v-40a8 8 0 0 0 5.657-2.343l12.486-12.486a4.028 4.028 0 0 1 2.828-1.171h19.029v8a8 8 0 0 0 8 8h24v40zm168-24a24.028 24.028 0 0 1 -24 24h-56v-40h40a8 8 0 0 0 8-8v-56h-16v48h-64a16.019 16.019 0 0 0 -16-16h-19.029a19.869 19.869 0 0 0 -14.143 5.858l-10.141 10.142h-52.687v-48h-16v56a8 8 0 0 0 8 8h48v40h-64a24.028 24.028 0 0 1 -24-24v-80a72.134 72.134 0 0 1 58.565-70.694 96.7 96.7 0 0 0 37.435 19.445v3.249a40 40 0 0 0 80 0v-3.249a96.7 96.7 0 0 0 37.435-19.445 72.134 72.134 0 0 1 58.565 70.694z"/></g></svg>