<?xml version="1.0" encoding="iso-8859-1"?>
<!-- Generator: Adobe Illustrator 19.0.0, SVG Export Plug-In . SVG Version: 6.00 Build 0)  -->
<svg version="1.1" id="Capa_1" xmlns="http://www.w3.org/2000/svg" xmlns:xlink="http://www.w3.org/1999/xlink" x="0px" y="0px"
	 viewBox="0 0 511.999 511.999" style="enable-background:new 0 0 511.999 511.999;" xml:space="preserve">
<rect x="206.3" y="407.999" style="fill:#ABBACD;" width="99.4" height="60.47"/>
<rect x="206.3" y="407.999" style="fill:#91A4B6;" width="99.4" height="27.383"/>
<path style="fill:#BAC7D9;" d="M487.934,82.049c9.15,0,16.567,7.417,16.567,16.567v298.199c0,9.15-7.417,16.567-16.567,16.567
	H24.068c-9.15,0-16.567-7.417-16.567-16.567V98.616c0-9.149,7.417-16.567,16.567-16.567
	C24.068,82.049,487.934,82.049,487.934,82.049z"/>
<path style="fill:#A5B5CC;" d="M487.934,82.049h-21.999c9.15,0,16.567,7.417,16.567,16.567v298.199
	c0,9.15-7.417,16.567-16.567,16.567h21.999c9.15,0,16.567-7.417,16.567-16.567V98.616C504.501,89.466,497.084,82.049,487.934,82.049
	z"/>
<circle style="fill:#D7DCF2;" cx="256" cy="380.249" r="12.426"/>
<path style="fill:#474855;" d="M504.501,347.114V98.616c0-9.15-7.417-16.567-16.567-16.567H24.068
	c-9.15,0-16.567,7.417-16.567,16.567v248.498H504.501z"/>
<path style="fill:#3C3C47;" d="M487.934,82.049h-22c9.15,0,16.567,7.417,16.567,16.567v248.498h22V98.616
	C504.501,89.466,497.084,82.049,487.934,82.049z"/>
<path style="fill:#FFFFFF;" d="M32.351,112.899v203.365c0,3.314,2.686,6,6,6h435.301c3.314,0,6-2.686,6-6V112.899
	c0-3.314-2.686-6-6-6H38.351C35.037,106.899,32.351,109.585,32.351,112.899z"/>
<path style="fill:#ABECFD;" d="M479.649,148.314H32.352v-35.415c0-3.314,2.686-6,6-6h435.3c3.314,0,6,2.687,6,6L479.649,148.314z"/>
<path style="fill:#BAC7D9;" d="M365.968,496.215H146.036c-3.314,0-6-2.686-6-6v-21.133c0-3.314,2.686-6,6-6h219.933
	c3.314,0,6,2.686,6,6v21.133C371.968,493.529,369.282,496.215,365.968,496.215z"/>
<path style="fill:#A5B5CC;" d="M365.968,463.082h-22c3.314,0,6,2.686,6,6v21.133c0,3.314-2.686,6-6,6h22c3.314,0,6-2.686,6-6
	v-21.133C371.968,465.768,369.282,463.082,365.968,463.082z"/>
<circle style="fill:#92D782;" cx="256" cy="148.319" r="132.53"/>
<path style="fill:#80CC6E;" d="M256.001,15.782c-3.705,0-7.372,0.16-11,0.458c68.049,5.592,121.534,62.584,121.534,132.076
	S313.05,274.799,245.001,280.391c3.628,0.298,7.295,0.458,11,0.458c73.196,0,132.534-59.337,132.534-132.533
	C388.535,75.119,329.197,15.782,256.001,15.782z"/>
<circle style="fill:#FFFFFF;" cx="256" cy="148.319" r="99.4"/>
<g>
	<path style="fill:#121212;" d="M487.934,74.549H374.977C350.243,34.8,306.164,8.282,256.001,8.282S161.759,34.8,137.025,74.549
		H24.067C10.797,74.549,0,85.345,0,98.616v298.199c0,13.271,10.797,24.067,24.067,24.067h174.734l0.001,34.701h-58.768
		c-4.143,0-7.5,3.358-7.5,7.5v25.634h-9.066c-4.143,0-7.5,3.358-7.5,7.5s3.357,7.5,7.5,7.5h265.066c4.143,0,7.5-3.358,7.5-7.5
		s-3.357-7.5-7.5-7.5h-9.066v-25.634c0-4.142-3.357-7.5-7.5-7.5H313.2v-34.701h174.733c13.271,0,24.066-10.796,24.066-24.067V98.616
		C512,85.345,501.204,74.549,487.934,74.549z M364.468,488.715H147.534v-18.133h58.74c0.01,0,0.019,0.001,0.029,0.001H305.7
		c0.01,0,0.019-0.001,0.029-0.001h58.738L364.468,488.715L364.468,488.715z M213.803,455.582l-0.001-34.7H298.2v34.7H213.803z
		 M116.17,140.814H39.85v-26.415h80.28C118.001,122.925,116.65,131.756,116.17,140.814z M39.85,155.814h76.32
		c3.91,73.742,65.132,132.535,139.831,132.535s135.921-58.793,139.831-132.535h76.318v158.949H39.85V155.814z M472.15,140.814
		h-76.318c-0.48-9.059-1.831-17.889-3.96-26.415h80.278L472.15,140.814L472.15,140.814z M256.001,23.282
		c68.943,0,125.033,56.09,125.033,125.034S324.944,273.35,256.001,273.35s-125.033-56.09-125.033-125.034
		C130.968,79.372,187.058,23.282,256.001,23.282z M24.067,89.549h104.846c-1.495,3.22-2.872,6.504-4.124,9.85H32.35
		c-4.143,0-7.5,3.358-7.5,7.5v215.365c0,4.142,3.358,7.5,7.5,7.5h447.3c4.143,0,7.5-3.358,7.5-7.5V106.899
		c0-4.142-3.357-7.5-7.5-7.5h-92.439c-1.251-3.346-2.629-6.63-4.124-9.85h104.845c4.999,0,9.066,4.067,9.066,9.067v240.998H15
		V98.616C15,93.616,19.067,89.549,24.067,89.549z M487.934,405.881H24.067c-5,0-9.067-4.067-9.067-9.067v-42.201h482v42.201
		C497,401.814,492.933,405.881,487.934,405.881z"/>
	<path style="fill:#121212;" d="M256.001,360.32c-10.987,0-19.926,8.939-19.926,19.926s8.939,19.926,19.926,19.926
		s19.927-8.939,19.927-19.926S266.988,360.32,256.001,360.32z M256.001,385.172c-2.716,0-4.926-2.21-4.926-4.926
		s2.21-4.926,4.926-4.926c2.717,0,4.927,2.21,4.927,4.926S258.718,385.172,256.001,385.172z"/>
	<path style="fill:#121212;" d="M57.201,135.106h16.566c4.143,0,7.5-3.358,7.5-7.5c0-4.142-3.357-7.5-7.5-7.5H57.201
		c-4.143,0-7.5,3.358-7.5,7.5C49.701,131.748,53.059,135.106,57.201,135.106z"/>
	<path style="fill:#121212;" d="M256.001,255.216c58.945,0,106.9-47.955,106.9-106.9s-47.955-106.901-106.9-106.901
		s-106.9,47.956-106.9,106.901S197.056,255.216,256.001,255.216z M256.001,56.415c50.674,0,91.9,41.227,91.9,91.901
		s-41.227,91.9-91.9,91.9s-91.9-41.227-91.9-91.9C164.101,97.641,205.327,56.415,256.001,56.415z"/>
	<path style="fill:#121212;" d="M256.001,89.549c4.143,0,7.5-3.358,7.5-7.5v-8.284c0-4.142-3.357-7.5-7.5-7.5s-7.5,3.358-7.5,7.5
		v8.284C248.501,86.191,251.858,89.549,256.001,89.549z"/>
	<path style="fill:#121212;" d="M181.451,155.815h8.283c4.143,0,7.5-3.358,7.5-7.5s-3.357-7.5-7.5-7.5h-8.283
		c-4.143,0-7.5,3.358-7.5,7.5S177.309,155.815,181.451,155.815z"/>
	<path style="fill:#121212;" d="M256.001,230.365c4.143,0,7.5-3.358,7.5-7.5v-8.284c0-4.142-3.357-7.5-7.5-7.5s-7.5,3.358-7.5,7.5
		v8.284C248.501,227.007,251.858,230.365,256.001,230.365z"/>
	<path style="fill:#121212;" d="M322.268,155.815h8.283c4.143,0,7.5-3.358,7.5-7.5s-3.357-7.5-7.5-7.5h-8.283
		c-4.143,0-7.5,3.358-7.5,7.5S318.125,155.815,322.268,155.815z"/>
	<path style="fill:#121212;" d="M256.001,155.815h33.134c4.143,0,7.5-3.358,7.5-7.5s-3.357-7.5-7.5-7.5h-25.634v-33.916
		c0-4.142-3.357-7.5-7.5-7.5s-7.5,3.358-7.5,7.5v41.417C248.501,152.457,251.858,155.815,256.001,155.815z"/>
</g>
<g>
</g>
<g>
</g>
<g>
</g>
<g>
</g>
<g>
</g>
<g>
</g>
<g>
</g>
<g>
</g>
<g>
</g>
<g>
</g>
<g>
</g>
<g>
</g>
<g>
</g>
<g>
</g>
<g>
</g>
</svg>
